<svg xmlns="http://www.w3.org/2000/svg" width="1060" height="460" viewBox="0 0 1060 460">
  <rect width="1060" height="460" fill="#f8fafc"/>
  <text x="40" y="50" font-family="Arial, sans-serif" font-size="28" font-weight="700" fill="#0f172a">Pilot: partner testing with reliability controls</text>
  <defs>
    <marker id="arrow" markerWidth="10" markerHeight="10" refX="8" refY="3" orient="auto" markerUnits="strokeWidth">
      <path d="M0,0 L0,6 L9,3 z" fill="#334155"/>
    </marker>
  </defs>
  <g font-family="Arial, sans-serif" font-size="16" fill="#0f172a">
    <rect x="40" y="170" width="150" height="75" rx="14" fill="#dbeafe" stroke="#2563eb" stroke-width="2"/>
    <text x="115" y="202" text-anchor="middle" font-weight="700">Partners</text>
    <text x="115" y="225" text-anchor="middle">limited users</text>
    <rect x="250" y="170" width="160" height="75" rx="14" fill="#dcfce7" stroke="#16a34a" stroke-width="2"/>
    <text x="330" y="202" text-anchor="middle" font-weight="700">Frontend</text>
    <text x="330" y="225" text-anchor="middle">Hosting</text>
    <rect x="470" y="160" width="190" height="95" rx="14" fill="#fef3c7" stroke="#d97706" stroke-width="2"/>
    <text x="565" y="192" text-anchor="middle" font-weight="700">API Cloud Run</text>
    <text x="565" y="216" text-anchor="middle">min instances 1..2</text>
    <rect x="720" y="95" width="160" height="75" rx="14" fill="#ede9fe" stroke="#7c3aed" stroke-width="2"/>
    <text x="800" y="127" text-anchor="middle" font-weight="700">Pub/Sub</text>
    <text x="800" y="150" text-anchor="middle">async queue</text>
    <rect x="720" y="220" width="160" height="75" rx="14" fill="#ede9fe" stroke="#7c3aed" stroke-width="2"/>
    <text x="800" y="252" text-anchor="middle" font-weight="700">Worker</text>
    <text x="800" y="275" text-anchor="middle">Cloud Run</text>
    <rect x="910" y="95" width="120" height="75" rx="14" fill="#fee2e2" stroke="#dc2626" stroke-width="2"/>
    <text x="970" y="127" text-anchor="middle" font-weight="700">DB</text>
    <text x="970" y="150" text-anchor="middle">backups</text>
    <rect x="910" y="220" width="120" height="75" rx="14" fill="#e0f2fe" stroke="#0284c7" stroke-width="2"/>
    <text x="970" y="252" text-anchor="middle" font-weight="700">Storage</text>
    <text x="970" y="275" text-anchor="middle">objects</text>
    <rect x="470" y="330" width="260" height="70" rx="14" fill="#f1f5f9" stroke="#475569" stroke-width="2"/>
    <text x="600" y="360" text-anchor="middle" font-weight="700">Security and Ops</text>
    <text x="600" y="383" text-anchor="middle">Secret Manager, IAM, alerts</text>
  </g>
  <g stroke="#334155" stroke-width="3" fill="none" marker-end="url(#arrow)">
    <path d="M190 208 L245 208"/>
    <path d="M410 208 L465 208"/>
    <path d="M660 190 L715 132"/>
    <path d="M800 170 L800 215"/>
    <path d="M880 132 L905 132"/>
    <path d="M880 258 L905 258"/>
    <path d="M565 255 L590 325"/>
  </g>
</svg>
